<svg width="72" height="72" viewBox="0 0 72 72" fill="none" xmlns="http://www.w3.org/2000/svg">
<g opacity="0.5">
<path d="M44.6256 24H27.3744C23.4397 24 20.25 27.1897 20.25 31.1244V32.1576C20.25 33.2673 20.6641 34.3371 21.4113 35.1575L22.2213 36.0469C23.572 37.53 23.3383 39.8569 21.7196 41.0418C19.878 42.39 19.878 45.1394 21.7196 46.4876C23.3383 47.6725 23.572 49.9994 22.2213 51.4825L21.4113 52.3719C20.6641 53.1923 20.25 54.2621 20.25 55.3718V57.0945C20.25 62.0129 24.2371 66 29.1555 66H42.8445C47.7629 66 51.75 62.0129 51.75 57.0945V55.3718C51.75 54.2621 51.3359 53.1923 50.5887 52.3719L49.7787 51.4825C48.428 49.9994 48.6617 47.6725 50.2804 46.4876C52.122 45.1394 52.122 42.39 50.2804 41.0419C48.6617 39.8569 48.428 37.53 49.7787 36.0469L50.5887 35.1575C51.3359 34.3371 51.75 33.2673 51.75 32.1576V31.1244C51.75 27.1897 48.5603 24 44.6256 24Z" stroke="#BBF246" stroke-width="4.5" stroke-linecap="round" stroke-linejoin="round"/>
<path d="M24 24C24 19.0294 28.0294 15 33 15H39C43.9706 15 48 19.0294 48 24V24H24V24Z" stroke="#BBF246" stroke-width="4.5"/>
<path d="M30 9C30 7.34315 31.3431 6 33 6H39C40.6569 6 42 7.34315 42 9V12C42 13.6569 40.6569 15 39 15H33C31.3431 15 30 13.6569 30 12V9Z" stroke="#BBF246" stroke-width="4.5"/>
</g>
</svg>
